<?xml version="1.0" encoding="utf-8"?>
<!-- Generator: Adobe Illustrator 22.0.1, SVG Export Plug-In . SVG Version: 6.00 Build 0)  -->
<svg version="1.0" id="レイヤー_1" xmlns="http://www.w3.org/2000/svg" xmlns:xlink="http://www.w3.org/1999/xlink" x="0px"
	 y="0px" viewBox="0 0 538.8 329.4" enable-background="new 0 0 538.8 329.4" xml:space="preserve">
<g>
	<g>
		
			<rect x="152.4" y="53.9" transform="matrix(0.4196 -0.9077 0.9077 0.4196 42.7166 184.1544)" fill="#888888" width="25.9" height="9.5"/>
		
			<rect x="94.2" y="155.9" transform="matrix(0.5542 -0.8324 0.8324 0.5542 -84.147 170.3862)" fill="#888888" width="45.5" height="15.6"/>
		<path fill="#C8C9C9" d="M393.7,264.4c-0.1,11-9.1,19.8-20.1,19.7l0,0c-11-0.1-19.8-9.1-19.7-20.1l0.3-30.2
			c0.1-11,9.1-19.8,20.1-19.7l0,0c11,0.1,19.8,9.1,19.7,20.1L393.7,264.4z"/>
		<path fill="#C8C9C9" d="M138.3,39.7l-5.8,0.5c0,0-2.1-7-3-16.9c-0.9-10-0.1-16.6-0.1-16.6l5.8-0.5L138.3,39.7z"/>
		
			<rect x="134.2" y="4.9" transform="matrix(0.9958 -9.155416e-02 9.155416e-02 0.9958 -1.4827 12.6464)" fill="#A9AAAA" width="5.8" height="35.2"/>
		<path fill="#BF1920" d="M159.4,50.2l16.7,10.4c0,0,10.9-17.7,13-19.8c4.1-4,6.9-4.7,6.9-4.7l-3.4-11.6c0,0-14.6-2.4-19.8-8.7
			c-1.7-2.8-4-8.1-14.1-14.4c-7.8-3.9-23.5,1.4-22.8,2.2c0.7,0.7,3.4,37.7,3.4,37.7s7.5,4.9,19.2,2.3
			C161,42.4,159.4,50.2,159.4,50.2z"/>
		<path fill="#221815" d="M216.2,36.3c-8.9-0.1-16.9-0.2-24.9-0.2c-8-0.1-8.5-11.9,0.1-11.8c8.6,0.1,16.9,0.2,24.9,0.2
			C226.5,24.6,227.2,36.4,216.2,36.3z"/>
		<path fill="#EA6000" d="M224.8,30.3c0,3-2.8,6.1-4.3,6.1c-3,0-5.7-0.1-8.4-0.1c-1.4,0-4-2.1-3.9-6c0-4,2.6-5.8,4.1-5.8
			c2.9,0,5.7,0.1,8.4,0.1C221.9,24.5,224.7,27.4,224.8,30.3z"/>
		<path fill="#E50012" d="M507.6,164.2c0,0,9.1,0.1,11.9,0.1c2.8,0,13.5,25.4,12.1,25.9c-1.4,0.4-10.4,0.7-10.4,0.7L507.6,164.2z"/>
		<path fill="#A9AAAA" d="M487.4,161.8c0,0,20-0.2,21.2,1c1.1,1.2,14.1,28.3,14.1,29.1c0,0.8-11.4,1.5-11.4,1.5L487.4,161.8z"/>
		<path fill="#888888" d="M174.8,30c0.9-0.1,12.7-0.8,12.7-0.8l7.6,7.7c0,0,0.9,2.3-1.4,2.3c-2.3,0-1.9-1.9-1.9-1.9l0-1.8
			c0,0-1.7-2.6-4.8-3.5c-3.2-0.9-10.2-0.1-11.7-0.1C173.7,31.9,173.9,30.1,174.8,30z"/>
		<path fill="#888888" d="M437.8,282.3c0,2.3-1.9,4.2-4.2,4.1l-4.3,0c-2.3,0-4.2-1.9-4.1-4.2l0,0c0-2.3,1.9-4.2,4.2-4.1l4.3,0
			C435.9,278.1,437.8,280,437.8,282.3L437.8,282.3z"/>
		<g>
			<path fill="#C8C9C9" stroke="#221815" stroke-width="19.229" d="M125,262.3c-0.3,31.9-26.4,57.4-58.2,57.1
				c-31.9-0.3-57.4-26.4-57.1-58.2c0.3-31.9,26.4-57.4,58.2-57.1C99.7,204.4,125.3,230.5,125,262.3z"/>
			<path fill="none" stroke="#221815" stroke-width="3.1754" d="M91.4,262c-0.1,13.3-11,24-24.3,23.9c-13.3-0.1-24-11-23.9-24.3
				c0.1-13.3,11-24,24.3-23.9C80.8,237.8,91.5,248.7,91.4,262z"/>
			<g>
				<path fill="#221815" d="M70.9,248.5c0,1.9-1.6,3.4-3.5,3.4c-1.9,0-3.4-1.6-3.4-3.5c0-1.9,1.6-3.4,3.5-3.4
					C69.4,245,70.9,246.6,70.9,248.5z"/>
				<path fill="#221815" d="M70.6,276c0,1.9-1.6,3.4-3.5,3.4c-1.9,0-3.4-1.6-3.4-3.5c0-1.9,1.6-3.4,3.5-3.4
					C69.1,272.5,70.6,274.1,70.6,276z"/>
			</g>
			<g>
				<path fill="#221815" d="M81,265.8c-1.9,0-3.4-1.6-3.4-3.5c0-1.9,1.6-3.4,3.5-3.4c1.9,0,3.4,1.6,3.4,3.5
					C84.5,264.3,82.9,265.8,81,265.8z"/>
				<path fill="#221815" d="M53.5,265.5c-1.9,0-3.4-1.6-3.4-3.5c0-1.9,1.6-3.4,3.5-3.4c1.9,0,3.4,1.6,3.4,3.5
					C57,264,55.4,265.5,53.5,265.5z"/>
			</g>
		</g>
		<g>
			<g>
				<path fill="#C8C9C9" d="M446.2,319.8c16,0.2,30.5-6.2,41-16.6c-26.3,1.1-52.8,1-79.3,1.6C418,314,431.4,319.6,446.2,319.8z"/>
				<path fill="#221815" d="M446.2,310.2c-8-0.1-15.6-2.1-22.2-5.7c-9.7,0.1-19.4,0.3-29,0.7c12.2,14.6,30.5,24.1,51,24.3
					c22.2,0.2,42-10.4,54.4-26.8c-9.9,0.6-19.8,0.9-29.8,1.2C463.5,307.9,455.1,310.2,446.2,310.2z"/>
			</g>
			<g>
				<path fill="#C8C9C9" d="M504.3,262.7c0.3-31.9-25.3-57.9-57.1-58.2c-31.9-0.3-57.9,25.3-58.2,57.1c-0.2,17.1,7.2,32.6,18.9,43.2
					c26.5-0.6,53-0.5,79.3-1.6C497.6,292.9,504.1,278.6,504.3,262.7z"/>
				<path fill="#221815" d="M513.9,262.8c0.3-37.1-29.6-67.6-66.7-67.9c-37.1-0.3-67.6,29.6-67.9,66.7c-0.2,16.6,5.7,31.8,15.6,43.7
					c9.7-0.3,19.4-0.5,29-0.7c-15.3-8.2-25.6-24.4-25.4-42.8c0.2-26.5,22-47.9,48.5-47.6c26.5,0.2,47.9,22,47.6,48.5
					c-0.2,17.6-9.8,33-24.1,41.2c9.9-0.3,19.9-0.6,29.8-1.2C508.7,291.5,513.8,277.8,513.9,262.8z"/>
				<path fill="none" stroke="#221815" stroke-width="3.1754" d="M470.7,262.4c-0.1,13.3-11,24-24.3,23.9c-13.3-0.1-24-11-23.9-24.3
					c0.1-13.3,11-24,24.3-23.9C460.1,238.2,470.8,249.1,470.7,262.4z"/>
				<g>
					<path fill="#221815" d="M450.2,248.9c0,1.9-1.6,3.4-3.5,3.4c-1.9,0-3.4-1.6-3.4-3.5c0-1.9,1.6-3.4,3.5-3.4
						C448.7,245.4,450.2,246.9,450.2,248.9z"/>
					<path fill="#221815" d="M449.9,276.4c0,1.9-1.6,3.4-3.5,3.4c-1.9,0-3.4-1.6-3.4-3.5c0-1.9,1.6-3.4,3.5-3.4
						C448.4,272.9,449.9,274.5,449.9,276.4z"/>
				</g>
				<g>
					<path fill="#221815" d="M460.3,266.1c-1.9,0-3.4-1.6-3.4-3.5c0-1.9,1.6-3.4,3.5-3.4c1.9,0,3.4,1.6,3.4,3.5
						C463.8,264.6,462.2,266.2,460.3,266.1z"/>
					<path fill="#221815" d="M432.8,265.9c-1.9,0-3.4-1.6-3.4-3.5c0-1.9,1.6-3.4,3.5-3.4c1.9,0,3.4,1.6,3.4,3.5
						C436.3,264.4,434.7,265.9,432.8,265.9z"/>
				</g>
			</g>
		</g>
		<g>
			
				<rect x="276.8" y="194.1" transform="matrix(9.417819e-03 -1 1 9.417819e-03 18.0495 545.4667)" fill="#C8C9C9" width="15" height="139.1"/>
			<path fill="#888888" d="M429.1,284.7c-6.4-0.1-54.5-0.5-54.5-0.5l0-4.5c0,0,46.7,0.4,54.5,0.5C437,280.3,435.5,284.7,429.1,284.7
				z"/>
			<path fill="#A9AAAA" d="M320.7,258.5c0,0,0.5,8.4,2.1,13c11.2,18.9,55.5,19.5,55.5,19.5l-2.2-33.8L320.7,258.5z"/>
		</g>
		<g>
			<path fill="#BF1920" d="M153.7,52.6c2.1-4.4,23.7,8,21.7,12.5c-2,4.6-23.5,54.3-26.7,62.3c-7.6,22.9-0.7,69.7,35.2,91.4
				s95.7,13.2,95.7,13.2s19.3-8.8,32-27.7c3.6-6.1,5.3-23.8,0.3-31.3c-5-7.5-27.1-40.2-29.5-44.4c-2.3-4.1,0.2-16.6,0.2-16.6
				l174.5,4c0,0-0.1,15-0.2,21.3c57.2,34,95.8,103,77.3,103.6c-18.5,0.6-145.5-7.5-151.7-7.6c-6.2-0.1-10.2,2.7-9.1,8.9
				c1.1,6.2,2.7,14.7,2.7,14.7s-167.9,5.5-188.2-1.8c-10.2-4.5-34.5-26.1-36.2-31.6c-1.7-5.5-10.1-35-19.9-46.7
				c-9.8-11.6-27-19.5-31.6-22.1c-4.6-2.6-3.4-16.8,0.2-18.5c3.6-1.7,17.1-7.2,21.5-16.4C126.1,110.9,151.7,56.9,153.7,52.6z"/>
			<path fill="#9F0E15" d="M370.2,236.8c0,0-17.5-7.6-25-35.3c-7.5-30.3,27.6-40.2,27.6-40.2s39.6-12.7,80.9,6.8
				c41.3,19.5,66.4,67.6,66.4,67.6s-19.9-46.9-55.6-72.6c-10.4-6-27.5-19.2-63.4-19.6c-35.9-0.3-50.2,12.6-58.4,23.8
				c-8.2,11.1-12.5,18.7-4.5,37.9C346.3,224.4,370.2,236.8,370.2,236.8z"/>
			<g>
				<path fill="#C8C9C9" d="M162.7,57.7c-0.3,0.6-25.3,56.4-29.6,71.9c-6.7,18.2,18.3,93.9,35.7,108c16.8,13.7,31.7,16,31.8,16
					c0.3,0,0.5-0.1,0.5-0.4c0-0.3-0.1-0.5-0.4-0.5c-0.1,0-14.8-2.3-31.4-15.8c-16.6-13.5-41.7-89.5-35.4-107
					c4.4-15.4,29.3-71.2,29.6-71.8c0.1-0.2,0-0.5-0.2-0.6C163.1,57.3,162.8,57.4,162.7,57.7z"/>
			</g>
		</g>
		<path fill="#BF1920" d="M5.8,197.4c-15.1-3,41.6-54,87.6-38.4c46,15.6,45.2,51.6,46.2,56.7c3.8,13.4,18.4,18.7,21,21.4
			c7.1,7.2-28,5.6-37-0.3c-13.4-8.8-27.6-26.8-54-35.6C52.8,196.5,22.9,192.5,5.8,197.4z"/>
		<path fill="#221815" d="M464.6,81.9c14,6.8-0.6,47.1-3.3,47.1c-2.7,0-182.1-1.7-182.1-1.7s-4.1-4.6-6.5-9.9
			c-2.5-5.2-8.9-29.2-2.9-29.1C308,88.6,455.8,78.6,464.6,81.9z"/>
		<path fill="#221815" d="M196.5,203.6c0.6,6.4-3.1,12-8.3,12.5l0,0c-5.2,0.5-9.9-4.3-10.5-10.7L167.1,94.7
			c-0.6-6.4,3.1-12,8.3-12.5l0,0c5.2-0.5,9.9,4.3,10.5,10.7L196.5,203.6z"/>
		<g>
			<polygon fill="#C8C9C9" points="200.4,253.5 318.7,255.2 318.7,254.3 200.4,252.6 			"/>
		</g>
		<path fill="#C8C9C9" d="M99.3,154.3L99.3,154.3c-1.7-0.1-3-1.1-2.9-2.3c0,0-1.2-2.2-0.8-6.9c0.4-4.7,1.7-6.7,1.7-6.7
			c0.1-1.2,1.5-2,3.2-1.9l0,0C100.3,137.8,99.4,153.1,99.3,154.3z"/>
	</g>
</g>
</svg>
